<svg xmlns="http://www.w3.org/2000/svg" viewBox="0 0 900 420" width="900" height="420">
<defs><linearGradient id="tbg" x1="0%" y1="0%" x2="0%" y2="100%">
<stop offset="0%" stop-color="#0d1117"/><stop offset="100%" stop-color="#161b22"/>
</linearGradient></defs>
<rect width="900" height="420" rx="12" fill="url(#tbg)"/>
<text x="450.0" y="28" text-anchor="middle" fill="#e6edf3" font-size="16" font-weight="bold">Awesome AI Agents 收录趋势</text>
<text x="450.0" y="46" text-anchor="middle" fill="#8b949e" font-size="12">总收录 3525 · 累计新增 3525 · Stars 10,242,118</text>
<text x="62" y="340.0" text-anchor="end" fill="#8b949e" font-size="11" dominant-baseline="middle">0</text>
<line x1="70" y1="340.0" x2="870" y2="340.0" stroke="#21262d" stroke-dasharray="4 4"/>
<text x="62" y="268.8" text-anchor="end" fill="#8b949e" font-size="11" dominant-baseline="middle">881</text>
<line x1="70" y1="268.8" x2="870" y2="268.8" stroke="#21262d" stroke-dasharray="4 4"/>
<text x="62" y="197.5" text-anchor="end" fill="#8b949e" font-size="11" dominant-baseline="middle">1762</text>
<line x1="70" y1="197.5" x2="870" y2="197.5" stroke="#21262d" stroke-dasharray="4 4"/>
<text x="62" y="126.3" text-anchor="end" fill="#8b949e" font-size="11" dominant-baseline="middle">2643</text>
<line x1="70" y1="126.3" x2="870" y2="126.3" stroke="#21262d" stroke-dasharray="4 4"/>
<text x="62" y="55.0" text-anchor="end" fill="#8b949e" font-size="11" dominant-baseline="middle">3525</text>
<line x1="70" y1="55.0" x2="870" y2="55.0" stroke="#21262d" stroke-dasharray="4 4"/>

<line x1="70" y1="55" x2="70" y2="340" stroke="#30363d"/>
<line x1="70" y1="340" x2="870" y2="340" stroke="#30363d"/>
<path d="M70.0,69.6 L136.7,68.7 L203.3,67.3 L270.0,65.7 L336.7,64.9 L403.3,63.5 L470.0,62.1 L536.7,60.8 L603.3,59.4 L670.0,58.0 L736.7,57.3 L803.3,55.6 L870.0,55.0 L870.0,340 L70.0,340 Z" fill="#58a6ff" opacity="0.12"/>
<polyline points="70.0,69.6 136.7,68.7 203.3,67.3 270.0,65.7 336.7,64.9 403.3,63.5 470.0,62.1 536.7,60.8 603.3,59.4 670.0,58.0 736.7,57.3 803.3,55.6 870.0,55.0" fill="none" stroke="#58a6ff" stroke-width="2.5" stroke-linecap="round" stroke-linejoin="round"/>
<circle cx="70.0" cy="69.6" r="3" fill="#58a6ff" stroke="#0d1117" stroke-width="1.5"/>
<circle cx="136.7" cy="68.7" r="3" fill="#58a6ff" stroke="#0d1117" stroke-width="1.5"/>
<circle cx="203.3" cy="67.3" r="3" fill="#58a6ff" stroke="#0d1117" stroke-width="1.5"/>
<circle cx="270.0" cy="65.7" r="3" fill="#58a6ff" stroke="#0d1117" stroke-width="1.5"/>
<circle cx="336.7" cy="64.9" r="3" fill="#58a6ff" stroke="#0d1117" stroke-width="1.5"/>
<circle cx="403.3" cy="63.5" r="3" fill="#58a6ff" stroke="#0d1117" stroke-width="1.5"/>
<circle cx="470.0" cy="62.1" r="3" fill="#58a6ff" stroke="#0d1117" stroke-width="1.5"/>
<circle cx="536.7" cy="60.8" r="3" fill="#58a6ff" stroke="#0d1117" stroke-width="1.5"/>
<circle cx="603.3" cy="59.4" r="3" fill="#58a6ff" stroke="#0d1117" stroke-width="1.5"/>
<circle cx="670.0" cy="58.0" r="3" fill="#58a6ff" stroke="#0d1117" stroke-width="1.5"/>
<circle cx="736.7" cy="57.3" r="3" fill="#58a6ff" stroke="#0d1117" stroke-width="1.5"/>
<circle cx="803.3" cy="55.6" r="3" fill="#58a6ff" stroke="#0d1117" stroke-width="1.5"/>
<circle cx="870.0" cy="55.0" r="3" fill="#58a6ff" stroke="#0d1117" stroke-width="1.5"/>
<path d="M70.0,55.0 L136.7,339.0 L203.3,338.6 L270.0,338.3 L336.7,339.1 L403.3,338.6 L470.0,338.6 L536.7,338.6 L603.3,338.5 L670.0,338.6 L736.7,339.2 L803.3,338.3 L870.0,339.3 L870.0,340 L70.0,340 Z" fill="#3fb950" opacity="0.12"/>
<polyline points="70.0,55.0 136.7,339.0 203.3,338.6 270.0,338.3 336.7,339.1 403.3,338.6 470.0,338.6 536.7,338.6 603.3,338.5 670.0,338.6 736.7,339.2 803.3,338.3 870.0,339.3" fill="none" stroke="#3fb950" stroke-width="2.5" stroke-linecap="round" stroke-linejoin="round"/>
<circle cx="70.0" cy="55.0" r="3" fill="#3fb950" stroke="#0d1117" stroke-width="1.5"/>
<circle cx="136.7" cy="339.0" r="3" fill="#3fb950" stroke="#0d1117" stroke-width="1.5"/>
<circle cx="203.3" cy="338.6" r="3" fill="#3fb950" stroke="#0d1117" stroke-width="1.5"/>
<circle cx="270.0" cy="338.3" r="3" fill="#3fb950" stroke="#0d1117" stroke-width="1.5"/>
<circle cx="336.7" cy="339.1" r="3" fill="#3fb950" stroke="#0d1117" stroke-width="1.5"/>
<circle cx="403.3" cy="338.6" r="3" fill="#3fb950" stroke="#0d1117" stroke-width="1.5"/>
<circle cx="470.0" cy="338.6" r="3" fill="#3fb950" stroke="#0d1117" stroke-width="1.5"/>
<circle cx="536.7" cy="338.6" r="3" fill="#3fb950" stroke="#0d1117" stroke-width="1.5"/>
<circle cx="603.3" cy="338.5" r="3" fill="#3fb950" stroke="#0d1117" stroke-width="1.5"/>
<circle cx="670.0" cy="338.6" r="3" fill="#3fb950" stroke="#0d1117" stroke-width="1.5"/>
<circle cx="736.7" cy="339.2" r="3" fill="#3fb950" stroke="#0d1117" stroke-width="1.5"/>
<circle cx="803.3" cy="338.3" r="3" fill="#3fb950" stroke="#0d1117" stroke-width="1.5"/>
<circle cx="870.0" cy="339.3" r="3" fill="#3fb950" stroke="#0d1117" stroke-width="1.5"/>
<text x="70.0" y="390" text-anchor="middle" fill="#8b949e" font-size="11">03-04</text>
<text x="136.7" y="390" text-anchor="middle" fill="#8b949e" font-size="11">03-05</text>
<text x="203.3" y="390" text-anchor="middle" fill="#8b949e" font-size="11">03-06</text>
<text x="270.0" y="390" text-anchor="middle" fill="#8b949e" font-size="11">03-07</text>
<text x="336.7" y="390" text-anchor="middle" fill="#8b949e" font-size="11">03-08</text>
<text x="403.3" y="390" text-anchor="middle" fill="#8b949e" font-size="11">03-09</text>
<text x="470.0" y="390" text-anchor="middle" fill="#8b949e" font-size="11">03-10</text>
<text x="536.7" y="390" text-anchor="middle" fill="#8b949e" font-size="11">03-11</text>
<text x="603.3" y="390" text-anchor="middle" fill="#8b949e" font-size="11">03-12</text>
<text x="670.0" y="390" text-anchor="middle" fill="#8b949e" font-size="11">03-13</text>
<text x="736.7" y="390" text-anchor="middle" fill="#8b949e" font-size="11">03-14</text>
<text x="803.3" y="390" text-anchor="middle" fill="#8b949e" font-size="11">03-15</text>
<text x="870.0" y="390" text-anchor="middle" fill="#8b949e" font-size="11">03-16</text>

<rect x="640" y="402" width="12" height="12" rx="2" fill="#58a6ff"/>
<text x="656" y="412" fill="#8b949e" font-size="11">总数</text>
<rect x="750" y="402" width="12" height="12" rx="2" fill="#3fb950"/>
<text x="766" y="412" fill="#8b949e" font-size="11">每日新增</text>
</svg>