<svg xmlns="http://www.w3.org/2000/svg" viewBox="0 0 900 420" width="900" height="420">
<defs><linearGradient id="tbg" x1="0%" y1="0%" x2="0%" y2="100%">
<stop offset="0%" stop-color="#0d1117"/><stop offset="100%" stop-color="#161b22"/>
</linearGradient></defs>
<rect width="900" height="420" rx="12" fill="url(#tbg)"/>
<text x="450.0" y="28" text-anchor="middle" fill="#e6edf3" font-size="16" font-weight="bold">Awesome AI Agents 收录趋势</text>
<text x="450.0" y="46" text-anchor="middle" fill="#8b949e" font-size="12">总收录 3517 · 累计新增 3517 · Stars 10,186,192</text>
<text x="62" y="340.0" text-anchor="end" fill="#8b949e" font-size="11" dominant-baseline="middle">0</text>
<line x1="70" y1="340.0" x2="870" y2="340.0" stroke="#21262d" stroke-dasharray="4 4"/>
<text x="62" y="268.8" text-anchor="end" fill="#8b949e" font-size="11" dominant-baseline="middle">879</text>
<line x1="70" y1="268.8" x2="870" y2="268.8" stroke="#21262d" stroke-dasharray="4 4"/>
<text x="62" y="197.5" text-anchor="end" fill="#8b949e" font-size="11" dominant-baseline="middle">1758</text>
<line x1="70" y1="197.5" x2="870" y2="197.5" stroke="#21262d" stroke-dasharray="4 4"/>
<text x="62" y="126.3" text-anchor="end" fill="#8b949e" font-size="11" dominant-baseline="middle">2637</text>
<line x1="70" y1="126.3" x2="870" y2="126.3" stroke="#21262d" stroke-dasharray="4 4"/>
<text x="62" y="55.0" text-anchor="end" fill="#8b949e" font-size="11" dominant-baseline="middle">3517</text>
<line x1="70" y1="55.0" x2="870" y2="55.0" stroke="#21262d" stroke-dasharray="4 4"/>

<line x1="70" y1="55" x2="70" y2="340" stroke="#30363d"/>
<line x1="70" y1="340" x2="870" y2="340" stroke="#30363d"/>
<path d="M70.0,69.0 L142.7,68.0 L215.5,66.7 L288.2,65.0 L360.9,64.2 L433.6,62.9 L506.4,61.5 L579.1,60.2 L651.8,58.7 L724.5,57.4 L797.3,56.6 L870.0,55.0 L870.0,340 L70.0,340 Z" fill="#58a6ff" opacity="0.12"/>
<polyline points="70.0,69.0 142.7,68.0 215.5,66.7 288.2,65.0 360.9,64.2 433.6,62.9 506.4,61.5 579.1,60.2 651.8,58.7 724.5,57.4 797.3,56.6 870.0,55.0" fill="none" stroke="#58a6ff" stroke-width="2.5" stroke-linecap="round" stroke-linejoin="round"/>
<circle cx="70.0" cy="69.0" r="3" fill="#58a6ff" stroke="#0d1117" stroke-width="1.5"/>
<circle cx="142.7" cy="68.0" r="3" fill="#58a6ff" stroke="#0d1117" stroke-width="1.5"/>
<circle cx="215.5" cy="66.7" r="3" fill="#58a6ff" stroke="#0d1117" stroke-width="1.5"/>
<circle cx="288.2" cy="65.0" r="3" fill="#58a6ff" stroke="#0d1117" stroke-width="1.5"/>
<circle cx="360.9" cy="64.2" r="3" fill="#58a6ff" stroke="#0d1117" stroke-width="1.5"/>
<circle cx="433.6" cy="62.9" r="3" fill="#58a6ff" stroke="#0d1117" stroke-width="1.5"/>
<circle cx="506.4" cy="61.5" r="3" fill="#58a6ff" stroke="#0d1117" stroke-width="1.5"/>
<circle cx="579.1" cy="60.2" r="3" fill="#58a6ff" stroke="#0d1117" stroke-width="1.5"/>
<circle cx="651.8" cy="58.7" r="3" fill="#58a6ff" stroke="#0d1117" stroke-width="1.5"/>
<circle cx="724.5" cy="57.4" r="3" fill="#58a6ff" stroke="#0d1117" stroke-width="1.5"/>
<circle cx="797.3" cy="56.6" r="3" fill="#58a6ff" stroke="#0d1117" stroke-width="1.5"/>
<circle cx="870.0" cy="55.0" r="3" fill="#58a6ff" stroke="#0d1117" stroke-width="1.5"/>
<path d="M70.0,55.0 L142.7,339.0 L215.5,338.6 L288.2,338.3 L360.9,339.1 L433.6,338.6 L506.4,338.6 L579.1,338.6 L651.8,338.5 L724.5,338.6 L797.3,339.2 L870.0,338.3 L870.0,340 L70.0,340 Z" fill="#3fb950" opacity="0.12"/>
<polyline points="70.0,55.0 142.7,339.0 215.5,338.6 288.2,338.3 360.9,339.1 433.6,338.6 506.4,338.6 579.1,338.6 651.8,338.5 724.5,338.6 797.3,339.2 870.0,338.3" fill="none" stroke="#3fb950" stroke-width="2.5" stroke-linecap="round" stroke-linejoin="round"/>
<circle cx="70.0" cy="55.0" r="3" fill="#3fb950" stroke="#0d1117" stroke-width="1.5"/>
<circle cx="142.7" cy="339.0" r="3" fill="#3fb950" stroke="#0d1117" stroke-width="1.5"/>
<circle cx="215.5" cy="338.6" r="3" fill="#3fb950" stroke="#0d1117" stroke-width="1.5"/>
<circle cx="288.2" cy="338.3" r="3" fill="#3fb950" stroke="#0d1117" stroke-width="1.5"/>
<circle cx="360.9" cy="339.1" r="3" fill="#3fb950" stroke="#0d1117" stroke-width="1.5"/>
<circle cx="433.6" cy="338.6" r="3" fill="#3fb950" stroke="#0d1117" stroke-width="1.5"/>
<circle cx="506.4" cy="338.6" r="3" fill="#3fb950" stroke="#0d1117" stroke-width="1.5"/>
<circle cx="579.1" cy="338.6" r="3" fill="#3fb950" stroke="#0d1117" stroke-width="1.5"/>
<circle cx="651.8" cy="338.5" r="3" fill="#3fb950" stroke="#0d1117" stroke-width="1.5"/>
<circle cx="724.5" cy="338.6" r="3" fill="#3fb950" stroke="#0d1117" stroke-width="1.5"/>
<circle cx="797.3" cy="339.2" r="3" fill="#3fb950" stroke="#0d1117" stroke-width="1.5"/>
<circle cx="870.0" cy="338.3" r="3" fill="#3fb950" stroke="#0d1117" stroke-width="1.5"/>
<text x="70.0" y="390" text-anchor="middle" fill="#8b949e" font-size="11">03-04</text>
<text x="142.7" y="390" text-anchor="middle" fill="#8b949e" font-size="11">03-05</text>
<text x="215.5" y="390" text-anchor="middle" fill="#8b949e" font-size="11">03-06</text>
<text x="288.2" y="390" text-anchor="middle" fill="#8b949e" font-size="11">03-07</text>
<text x="360.9" y="390" text-anchor="middle" fill="#8b949e" font-size="11">03-08</text>
<text x="433.6" y="390" text-anchor="middle" fill="#8b949e" font-size="11">03-09</text>
<text x="506.4" y="390" text-anchor="middle" fill="#8b949e" font-size="11">03-10</text>
<text x="579.1" y="390" text-anchor="middle" fill="#8b949e" font-size="11">03-11</text>
<text x="651.8" y="390" text-anchor="middle" fill="#8b949e" font-size="11">03-12</text>
<text x="724.5" y="390" text-anchor="middle" fill="#8b949e" font-size="11">03-13</text>
<text x="797.3" y="390" text-anchor="middle" fill="#8b949e" font-size="11">03-14</text>
<text x="870.0" y="390" text-anchor="middle" fill="#8b949e" font-size="11">03-15</text>

<rect x="640" y="402" width="12" height="12" rx="2" fill="#58a6ff"/>
<text x="656" y="412" fill="#8b949e" font-size="11">总数</text>
<rect x="750" y="402" width="12" height="12" rx="2" fill="#3fb950"/>
<text x="766" y="412" fill="#8b949e" font-size="11">每日新增</text>
</svg>