<svg xmlns="http://www.w3.org/2000/svg" viewBox="0 0 900 420" width="900" height="420">
<defs><linearGradient id="tbg" x1="0%" y1="0%" x2="0%" y2="100%">
<stop offset="0%" stop-color="#0d1117"/><stop offset="100%" stop-color="#161b22"/>
</linearGradient></defs>
<rect width="900" height="420" rx="12" fill="url(#tbg)"/>
<text x="450.0" y="28" text-anchor="middle" fill="#e6edf3" font-size="16" font-weight="bold">Awesome AI Agents 收录趋势</text>
<text x="450.0" y="46" text-anchor="middle" fill="#8b949e" font-size="12">总收录 3884 · 累计新增 431 · Stars 12,516,912</text>
<text x="62" y="340.0" text-anchor="end" fill="#8b949e" font-size="11" dominant-baseline="middle">0</text>
<line x1="70" y1="340.0" x2="870" y2="340.0" stroke="#21262d" stroke-dasharray="4 4"/>
<text x="62" y="268.8" text-anchor="end" fill="#8b949e" font-size="11" dominant-baseline="middle">971</text>
<line x1="70" y1="268.8" x2="870" y2="268.8" stroke="#21262d" stroke-dasharray="4 4"/>
<text x="62" y="197.5" text-anchor="end" fill="#8b949e" font-size="11" dominant-baseline="middle">1942</text>
<line x1="70" y1="197.5" x2="870" y2="197.5" stroke="#21262d" stroke-dasharray="4 4"/>
<text x="62" y="126.2" text-anchor="end" fill="#8b949e" font-size="11" dominant-baseline="middle">2913</text>
<line x1="70" y1="126.2" x2="870" y2="126.2" stroke="#21262d" stroke-dasharray="4 4"/>
<text x="62" y="55.0" text-anchor="end" fill="#8b949e" font-size="11" dominant-baseline="middle">3884</text>
<line x1="70" y1="55.0" x2="870" y2="55.0" stroke="#21262d" stroke-dasharray="4 4"/>

<line x1="70" y1="55" x2="70" y2="340" stroke="#30363d"/>
<line x1="70" y1="340" x2="870" y2="340" stroke="#30363d"/>
<path d="M70.0,85.3 L97.6,84.1 L125.2,83.4 L152.8,81.9 L180.3,81.3 L207.9,80.0 L235.5,79.4 L263.1,78.4 L290.7,77.2 L318.3,76.4 L345.9,75.6 L373.4,74.7 L401.0,73.7 L428.6,72.5 L456.2,71.5 L483.8,70.0 L511.4,68.9 L539.0,68.3 L566.6,66.7 L594.1,65.7 L621.7,64.0 L649.3,62.9 L676.9,61.9 L704.5,60.9 L732.1,60.0 L759.7,59.4 L787.2,58.2 L814.8,56.6 L842.4,55.4 L870.0,55.0 L870.0,340 L70.0,340 Z" fill="#58a6ff" opacity="0.12"/>
<polyline points="70.0,85.3 97.6,84.1 125.2,83.4 152.8,81.9 180.3,81.3 207.9,80.0 235.5,79.4 263.1,78.4 290.7,77.2 318.3,76.4 345.9,75.6 373.4,74.7 401.0,73.7 428.6,72.5 456.2,71.5 483.8,70.0 511.4,68.9 539.0,68.3 566.6,66.7 594.1,65.7 621.7,64.0 649.3,62.9 676.9,61.9 704.5,60.9 732.1,60.0 759.7,59.4 787.2,58.2 814.8,56.6 842.4,55.4 870.0,55.0" fill="none" stroke="#58a6ff" stroke-width="2.5" stroke-linecap="round" stroke-linejoin="round"/>
<circle cx="70.0" cy="85.3" r="3" fill="#58a6ff" stroke="#0d1117" stroke-width="1.5"/>
<circle cx="97.6" cy="84.1" r="3" fill="#58a6ff" stroke="#0d1117" stroke-width="1.5"/>
<circle cx="125.2" cy="83.4" r="3" fill="#58a6ff" stroke="#0d1117" stroke-width="1.5"/>
<circle cx="152.8" cy="81.9" r="3" fill="#58a6ff" stroke="#0d1117" stroke-width="1.5"/>
<circle cx="180.3" cy="81.3" r="3" fill="#58a6ff" stroke="#0d1117" stroke-width="1.5"/>
<circle cx="207.9" cy="80.0" r="3" fill="#58a6ff" stroke="#0d1117" stroke-width="1.5"/>
<circle cx="235.5" cy="79.4" r="3" fill="#58a6ff" stroke="#0d1117" stroke-width="1.5"/>
<circle cx="263.1" cy="78.4" r="3" fill="#58a6ff" stroke="#0d1117" stroke-width="1.5"/>
<circle cx="290.7" cy="77.2" r="3" fill="#58a6ff" stroke="#0d1117" stroke-width="1.5"/>
<circle cx="318.3" cy="76.4" r="3" fill="#58a6ff" stroke="#0d1117" stroke-width="1.5"/>
<circle cx="345.9" cy="75.6" r="3" fill="#58a6ff" stroke="#0d1117" stroke-width="1.5"/>
<circle cx="373.4" cy="74.7" r="3" fill="#58a6ff" stroke="#0d1117" stroke-width="1.5"/>
<circle cx="401.0" cy="73.7" r="3" fill="#58a6ff" stroke="#0d1117" stroke-width="1.5"/>
<circle cx="428.6" cy="72.5" r="3" fill="#58a6ff" stroke="#0d1117" stroke-width="1.5"/>
<circle cx="456.2" cy="71.5" r="3" fill="#58a6ff" stroke="#0d1117" stroke-width="1.5"/>
<circle cx="483.8" cy="70.0" r="3" fill="#58a6ff" stroke="#0d1117" stroke-width="1.5"/>
<circle cx="511.4" cy="68.9" r="3" fill="#58a6ff" stroke="#0d1117" stroke-width="1.5"/>
<circle cx="539.0" cy="68.3" r="3" fill="#58a6ff" stroke="#0d1117" stroke-width="1.5"/>
<circle cx="566.6" cy="66.7" r="3" fill="#58a6ff" stroke="#0d1117" stroke-width="1.5"/>
<circle cx="594.1" cy="65.7" r="3" fill="#58a6ff" stroke="#0d1117" stroke-width="1.5"/>
<circle cx="621.7" cy="64.0" r="3" fill="#58a6ff" stroke="#0d1117" stroke-width="1.5"/>
<circle cx="649.3" cy="62.9" r="3" fill="#58a6ff" stroke="#0d1117" stroke-width="1.5"/>
<circle cx="676.9" cy="61.9" r="3" fill="#58a6ff" stroke="#0d1117" stroke-width="1.5"/>
<circle cx="704.5" cy="60.9" r="3" fill="#58a6ff" stroke="#0d1117" stroke-width="1.5"/>
<circle cx="732.1" cy="60.0" r="3" fill="#58a6ff" stroke="#0d1117" stroke-width="1.5"/>
<circle cx="759.7" cy="59.4" r="3" fill="#58a6ff" stroke="#0d1117" stroke-width="1.5"/>
<circle cx="787.2" cy="58.2" r="3" fill="#58a6ff" stroke="#0d1117" stroke-width="1.5"/>
<circle cx="814.8" cy="56.6" r="3" fill="#58a6ff" stroke="#0d1117" stroke-width="1.5"/>
<circle cx="842.4" cy="55.4" r="3" fill="#58a6ff" stroke="#0d1117" stroke-width="1.5"/>
<circle cx="870.0" cy="55.0" r="3" fill="#58a6ff" stroke="#0d1117" stroke-width="1.5"/>
<path d="M70.0,117.0 L97.6,129.3 L125.2,228.5 L152.8,92.2 L180.3,240.9 L207.9,117.0 L235.5,228.5 L263.1,178.9 L290.7,141.7 L318.3,203.7 L345.9,203.7 L373.4,178.9 L401.0,178.9 L428.6,141.7 L456.2,166.5 L483.8,92.2 L511.4,141.7 L539.0,240.9 L566.6,79.8 L594.1,166.5 L621.7,55.0 L649.3,141.7 L676.9,178.9 L704.5,166.5 L732.1,191.3 L759.7,240.9 L787.2,129.3 L814.8,79.8 L842.4,141.7 L870.0,265.7 L870.0,340 L70.0,340 Z" fill="#3fb950" opacity="0.12"/>
<polyline points="70.0,117.0 97.6,129.3 125.2,228.5 152.8,92.2 180.3,240.9 207.9,117.0 235.5,228.5 263.1,178.9 290.7,141.7 318.3,203.7 345.9,203.7 373.4,178.9 401.0,178.9 428.6,141.7 456.2,166.5 483.8,92.2 511.4,141.7 539.0,240.9 566.6,79.8 594.1,166.5 621.7,55.0 649.3,141.7 676.9,178.9 704.5,166.5 732.1,191.3 759.7,240.9 787.2,129.3 814.8,79.8 842.4,141.7 870.0,265.7" fill="none" stroke="#3fb950" stroke-width="2.5" stroke-linecap="round" stroke-linejoin="round"/>
<circle cx="70.0" cy="117.0" r="3" fill="#3fb950" stroke="#0d1117" stroke-width="1.5"/>
<circle cx="97.6" cy="129.3" r="3" fill="#3fb950" stroke="#0d1117" stroke-width="1.5"/>
<circle cx="125.2" cy="228.5" r="3" fill="#3fb950" stroke="#0d1117" stroke-width="1.5"/>
<circle cx="152.8" cy="92.2" r="3" fill="#3fb950" stroke="#0d1117" stroke-width="1.5"/>
<circle cx="180.3" cy="240.9" r="3" fill="#3fb950" stroke="#0d1117" stroke-width="1.5"/>
<circle cx="207.9" cy="117.0" r="3" fill="#3fb950" stroke="#0d1117" stroke-width="1.5"/>
<circle cx="235.5" cy="228.5" r="3" fill="#3fb950" stroke="#0d1117" stroke-width="1.5"/>
<circle cx="263.1" cy="178.9" r="3" fill="#3fb950" stroke="#0d1117" stroke-width="1.5"/>
<circle cx="290.7" cy="141.7" r="3" fill="#3fb950" stroke="#0d1117" stroke-width="1.5"/>
<circle cx="318.3" cy="203.7" r="3" fill="#3fb950" stroke="#0d1117" stroke-width="1.5"/>
<circle cx="345.9" cy="203.7" r="3" fill="#3fb950" stroke="#0d1117" stroke-width="1.5"/>
<circle cx="373.4" cy="178.9" r="3" fill="#3fb950" stroke="#0d1117" stroke-width="1.5"/>
<circle cx="401.0" cy="178.9" r="3" fill="#3fb950" stroke="#0d1117" stroke-width="1.5"/>
<circle cx="428.6" cy="141.7" r="3" fill="#3fb950" stroke="#0d1117" stroke-width="1.5"/>
<circle cx="456.2" cy="166.5" r="3" fill="#3fb950" stroke="#0d1117" stroke-width="1.5"/>
<circle cx="483.8" cy="92.2" r="3" fill="#3fb950" stroke="#0d1117" stroke-width="1.5"/>
<circle cx="511.4" cy="141.7" r="3" fill="#3fb950" stroke="#0d1117" stroke-width="1.5"/>
<circle cx="539.0" cy="240.9" r="3" fill="#3fb950" stroke="#0d1117" stroke-width="1.5"/>
<circle cx="566.6" cy="79.8" r="3" fill="#3fb950" stroke="#0d1117" stroke-width="1.5"/>
<circle cx="594.1" cy="166.5" r="3" fill="#3fb950" stroke="#0d1117" stroke-width="1.5"/>
<circle cx="621.7" cy="55.0" r="3" fill="#3fb950" stroke="#0d1117" stroke-width="1.5"/>
<circle cx="649.3" cy="141.7" r="3" fill="#3fb950" stroke="#0d1117" stroke-width="1.5"/>
<circle cx="676.9" cy="178.9" r="3" fill="#3fb950" stroke="#0d1117" stroke-width="1.5"/>
<circle cx="704.5" cy="166.5" r="3" fill="#3fb950" stroke="#0d1117" stroke-width="1.5"/>
<circle cx="732.1" cy="191.3" r="3" fill="#3fb950" stroke="#0d1117" stroke-width="1.5"/>
<circle cx="759.7" cy="240.9" r="3" fill="#3fb950" stroke="#0d1117" stroke-width="1.5"/>
<circle cx="787.2" cy="129.3" r="3" fill="#3fb950" stroke="#0d1117" stroke-width="1.5"/>
<circle cx="814.8" cy="79.8" r="3" fill="#3fb950" stroke="#0d1117" stroke-width="1.5"/>
<circle cx="842.4" cy="141.7" r="3" fill="#3fb950" stroke="#0d1117" stroke-width="1.5"/>
<circle cx="870.0" cy="265.7" r="3" fill="#3fb950" stroke="#0d1117" stroke-width="1.5"/>
<text x="70.0" y="390" text-anchor="middle" fill="#8b949e" font-size="11">03-12</text>
<text x="180.3" y="390" text-anchor="middle" fill="#8b949e" font-size="11">03-16</text>
<text x="290.7" y="390" text-anchor="middle" fill="#8b949e" font-size="11">03-20</text>
<text x="401.0" y="390" text-anchor="middle" fill="#8b949e" font-size="11">03-24</text>
<text x="511.4" y="390" text-anchor="middle" fill="#8b949e" font-size="11">03-28</text>
<text x="621.7" y="390" text-anchor="middle" fill="#8b949e" font-size="11">04-01</text>
<text x="732.1" y="390" text-anchor="middle" fill="#8b949e" font-size="11">04-05</text>
<text x="842.4" y="390" text-anchor="middle" fill="#8b949e" font-size="11">04-10</text>

<rect x="640" y="402" width="12" height="12" rx="2" fill="#58a6ff"/>
<text x="656" y="412" fill="#8b949e" font-size="11">总数</text>
<rect x="750" y="402" width="12" height="12" rx="2" fill="#3fb950"/>
<text x="766" y="412" fill="#8b949e" font-size="11">每日新增</text>
</svg>